M48
;DRILL file {KiCad 4.0.7} date 09/08/21 06:52:01
;FORMAT={-:-/ absolute / inch / decimal}
FMAT,2
INCH,TZ
T1C0.016
T2C0.024
T3C0.030
T4C0.031
T5C0.035
T6C0.039
T7C0.039
T8C0.047
T9C0.059
T10C0.067
T11C0.126
T12C0.035
T13C0.346
%
G90
G05
M72
T1
X1.4402Y-3.7327
X1.4606Y-4.3071
X1.4669Y-4.0228
X1.5669Y-4.0252
X1.6008Y-4.313
X1.7701Y-4.1472
X1.7902Y-4.3323
X1.8232Y-3.8382
X1.8811Y-3.7382
X1.8823Y-4.0205
X1.9587Y-4.1181
X2.0134Y-3.839
X2.0472Y-2.0008
X2.078Y-4.3323
X2.0984Y-3.9921
X2.161Y-3.4236
X2.1654Y-3.5476
X2.1724Y-2.1815
X2.1902Y-4.0602
X2.2146Y-3.0039
X2.2429Y-3.9102
X2.2657Y-4.3264
X2.2681Y-3.7756
X2.2744Y-2.7528
X2.2748Y-3.311
X2.3031Y-3.9685
X2.3142Y-3.5787
X2.3472Y-3.2024
X2.3531Y-3.4764
X2.3614Y-4.2764
X2.3669Y-3.6346
X2.4508Y-3.6287
X2.528Y-3.6165
X2.5339Y-4.2358
X2.5705Y-1.1937
X2.5744Y-1.3969
X2.6268Y-3.7894
X2.6878Y-1.715
X2.7394Y-1.2055
X2.865Y-1.2425
X2.8953Y-1.0374
X2.9169Y-1.5689
X2.9213Y-2.126
X2.9283Y-2.4748
X2.9807Y-1.3146
X2.9831Y-1.4327
X3.0429Y-3.7008
X3.0906Y-2.2953
X3.0906Y-3.2004
X3.1362Y-2.3602
X3.1846Y-1.5744
X3.2039Y-1.0736
X3.2047Y-3.3146
X3.3197Y-3.1996
X3.3346Y-3.3528
X3.3799Y-3.0465
X3.3827Y-2.8583
X3.3846Y-1.5728
X3.4043Y-1.3724
X3.4047Y-1.1224
X3.4047Y-1.2524
X3.4063Y-1.0295
X3.4862Y-2.8161
X3.5173Y-1.3709
X3.5205Y-1.5063
X3.5252Y-3.1984
X3.5598Y-1.1256
X3.5752Y-1.0031
X3.5917Y-2.848
X3.6276Y-2.9185
X3.6417Y-1.772
X3.6421Y-1.5244
X3.65Y-1.6059
X3.6512Y-2.0583
X3.6512Y-2.9724
X3.6551Y-1.9433
X3.68Y-2.76
X3.6976Y-3.0146
X3.7067Y-2.6154
X3.7378Y-3.0524
X3.7701Y-1.5252
X3.8146Y-1.6079
X3.9402Y-1.611
X4.0307Y-1.5346
X4.0433Y-1.8839
X4.0799Y-2.7705
X4.0902Y-3.6969
X4.1189Y-3.8618
X4.1614Y-1.4768
X4.1756Y-1.6374
X4.1969Y-1.3098
X4.2413Y-3.6969
X4.311Y-1.7913
X4.311Y-1.9154
X4.4287Y-3.6969
X4.4559Y-3.9335
X4.6406Y-3.685
X4.6563Y-4.2646
X4.6583Y-3.8937
X4.7886Y-3.8681
X4.8819Y-4.1661
X5.0256Y-2.2673
X5.074Y-3.7697
X5.0862Y-3.6228
X5.1091Y-3.4366
X5.1783Y-2.1248
X5.1827Y-3.7697
X5.1854Y-2.915
X5.235Y-2.0819
X5.3024Y-2.0705
X5.3469Y-2.2264
X5.3854Y-2.322
X5.3957Y-1.2354
X5.4492Y-2.1047
X5.5602Y-2.0768
X5.5827Y-1.1575
X5.587Y-1.0972
X5.5945Y-1.4276
X5.598Y-1.2469
X5.6366Y-2.2488
X5.6591Y-2.1209
X5.7091Y-3.2461
X5.7232Y-2.8831
X5.7331Y-2.6906
X5.7634Y-2.2146
X5.7634Y-2.3906
X5.7634Y-2.5465
X5.787Y-3.0756
X5.7894Y-1.2134
X5.7917Y-1.3098
X5.8154Y-0.9409
X5.8465Y-2.7047
X5.872Y-1.828
X5.8976Y-2.0713
X5.9228Y-2.9563
X5.9654Y-3.2654
X5.9693Y-1.0114
X5.9909Y-2.5618
X5.9957Y-2.6827
X6.011Y-3.411
X6.0177Y-2.9449
X6.0193Y-1.1823
X6.0209Y-1.3331
T2
X1.937Y-1.0736
X1.937Y-1.1524
X2.4984Y-1.3366
X2.4984Y-1.4154
X2.5276Y-1.5827
X2.5276Y-1.6614
X2.689Y-1.6024
X2.7677Y-1.6024
X4.1752Y-2.3969
X4.2539Y-2.3969
X4.6102Y-2.9488
X4.6102Y-3.0276
X4.7189Y-3.5705
X4.7976Y-3.5705
X4.835Y-2.7945
X4.9138Y-2.7945
X4.9189Y-2.1598
X4.9976Y-2.1598
T3
X4.4902Y-3.1894
X4.4902Y-3.2894
X4.4902Y-3.3894
X4.5902Y-3.1394
X4.5902Y-3.2394
X4.5902Y-3.3394
X5.4232Y-1.9236
X5.4242Y-1.6835
X5.4732Y-2.0236
X5.4742Y-1.7835
X5.5232Y-1.9236
X5.5242Y-1.6835
X5.5732Y-2.0236
X5.5742Y-1.7835
X5.6232Y-1.9236
X5.6242Y-1.6835
X5.6732Y-2.0236
X5.6742Y-1.7835
X5.7335Y-1.0437
X5.7835Y-1.1437
X5.8335Y-1.0437
X5.8835Y-1.1437
T4
X1.6854Y-3.7362
X1.7854Y-3.7362
X1.8169Y-3.2657
X1.8169Y-3.3642
X2.1209Y-2.5646
X2.1209Y-2.663
X2.2815Y-4.0591
X2.2815Y-4.1575
X2.5295Y-3.9429
X2.715Y-1.8441
X2.7217Y-3.9429
X2.815Y-1.7441
X2.815Y-1.9441
X2.9551Y-0.978
X2.9551Y-1.078
X3.3268Y-0.978
X3.3268Y-1.078
X3.6831Y-1.0677
X3.6831Y-1.2598
X3.8878Y-1.0677
X3.8878Y-1.2598
X4.0915Y-2.1388
X4.0925Y-1.0669
X4.0925Y-1.2591
X4.1087Y-2.9075
X4.1555Y-1.7165
X4.1915Y-2.2388
X4.2087Y-2.9075
X4.2555Y-1.7165
X4.2915Y-2.1388
X4.2972Y-1.0677
X4.2972Y-1.2598
X4.3087Y-2.9075
X4.502Y-1.0669
X4.502Y-1.2591
X4.7067Y-1.0677
X4.7067Y-1.2598
X4.7799Y-2.4598
X4.8799Y-2.3598
X4.9114Y-1.0669
X4.9114Y-1.2591
X4.9799Y-2.4598
X5.1161Y-1.0677
X5.1161Y-1.2598
X5.3209Y-1.0669
X5.3209Y-1.2591
X5.4055Y-2.4516
X5.4055Y-2.55
X5.5256Y-1.0669
X5.5256Y-1.2591
T5
X1.6614Y-2.2366
X1.6614Y-2.3366
X1.6614Y-2.4335
X1.6614Y-2.5335
X2.1614Y-1.4827
X2.2598Y-1.6795
X2.3583Y-1.4827
T6
X2.8327Y-3.1642
X2.8327Y-3.2642
X2.8327Y-3.3642
X2.9327Y-3.1642
X2.9327Y-3.2642
X2.9327Y-3.3642
X2.97Y-4.155
X3.07Y-4.155
X3.17Y-4.155
X3.27Y-4.155
X3.37Y-4.155
X3.47Y-4.155
X3.57Y-4.155
X3.67Y-4.155
X3.77Y-4.155
X3.87Y-4.155
X4.8902Y-3.4791
X4.8902Y-3.6768
X4.9433Y-3.9016
X4.9433Y-4.2016
X4.9902Y-3.4291
X4.9902Y-3.6268
X5.0433Y-3.9016
X5.0433Y-4.2016
X5.1433Y-3.9016
X5.1433Y-4.2016
X5.2433Y-3.9016
X5.2433Y-4.2016
X5.3433Y-3.9016
X5.3433Y-4.2016
T7
X4.8878Y-2.9654
X4.8878Y-3.0654
X4.8878Y-3.1654
X5.4941Y-4.0886
X5.6941Y-4.0886
X5.7672Y-3.7815
X5.872Y-2.1417
X5.872Y-2.3417
X5.872Y-2.4457
X5.872Y-2.6457
X5.9641Y-3.7815
T9
X5.9311Y-4.0827
T10
X5.8311Y-3.9827
X5.8311Y-4.1827
X6.0311Y-3.9827
X6.0311Y-4.1827
T11
X1.6142Y-1.5354
X1.6142Y-3.5039
X5.7697Y-1.5039
X5.8661Y-3.5039
T12
X1.5669Y-3.9508
X1.5669Y-4.124
T13
X5.5478Y-3.0654
T5
X1.5177Y-1.1496G85X1.5177Y-1.1772
G05
X1.5177Y-1.9134G85X1.5177Y-1.9409
G05
X1.7283Y-0.9665G85X1.7008Y-0.9665
G05
X1.7283Y-1.065G85X1.7008Y-1.065
G05
X1.7283Y-1.2618G85X1.7008Y-1.2618
G05
X1.7283Y-1.3602G85X1.7008Y-1.3602
G05
X1.7283Y-1.7303G85X1.7008Y-1.7303
G05
X1.7283Y-1.8287G85X1.7008Y-1.8287
G05
X1.7283Y-2.0256G85X1.7008Y-2.0256
G05
X1.7283Y-2.124G85X1.7008Y-2.124
G05
T7
X1.6969Y-2.7697G85X1.6969Y-2.8484
G05
X1.7756Y-2.6241G85X1.8543Y-2.6241
G05
X1.9331Y-2.7697G85X1.9331Y-2.8484
G05
T8
X1.4193Y-0.9665G85X1.4193Y-0.9665
G05
X1.4193Y-1.3602G85X1.4193Y-1.3602
G05
X1.4193Y-1.7303G85X1.4193Y-1.7303
G05
X1.4193Y-2.124G85X1.4193Y-2.124
G05
X1.5177Y-0.9665G85X1.5177Y-0.9665
G05
X1.5177Y-1.3602G85X1.5177Y-1.3602
G05
X1.5177Y-1.7303G85X1.5177Y-1.7303
G05
X1.5177Y-2.124G85X1.5177Y-2.124
G05
X1.7146Y-1.1634G85X1.7146Y-1.1634
G05
X1.7146Y-1.9272G85X1.7146Y-1.9272
G05
T0
M30
