M48
;DRILL file {KiCad 4.0.3+e1-6302~38~ubuntu14.04.1-stable} date Thu Sep 29 11:28:26 2016
;FORMAT={-:-/ absolute / metric / decimal}
FMAT,2
METRIC,TZ
T1C0.400
T2C0.500
T3C0.600
T4C0.800
T5C0.900
T6C1.001
T7C1.016
T8C1.200
T9C3.200
%
G90
G05
M71
T1
X47.5Y-42.5
X47.5Y-47.5
X47.5Y-52.5
X47.5Y-65.
X47.5Y-67.5
X47.5Y-72.5
X49.62Y-44.48
X49.68Y-72.91
X50.Y-40.
X50.98Y-96.28
X51.05Y-109.65
X51.17Y-100.43
X51.47Y-68.43
X51.47Y-70.86
X51.48Y-66.26
X51.51Y-102.49
X51.59Y-106.91
X51.69Y-53.45
X51.78Y-113.39
X52.02Y-42.64
X52.5Y-37.5
X52.79Y-56.23
X53.03Y-72.
X53.17Y-74.21
X53.17Y-76.44
X53.35Y-52.66
X53.5Y-50.5
X53.55Y-82.3
X53.68Y-116.85
X53.84Y-105.12
X54.27Y-61.04
X54.35Y-83.25
X54.38Y-58.93
X54.83Y-108.24
X55.Y-35.
X55.Y-51.
X55.Y-55.
X55.35Y-83.8
X55.46Y-65.01
X55.49Y-62.9
X55.51Y-94.49
X55.74Y-110.6
X55.82Y-118.26
X56.13Y-73.48
X56.5Y-52.35
X57.04Y-51.02
X57.35Y-52.35
X57.5Y-32.5
X57.5Y-55.5
X57.61Y-114.49
X58.Y-48.
X58.01Y-90.06
X58.16Y-92.17
X58.7Y-50.2
X58.88Y-87.57
X59.Y-55.5
X59.09Y-118.99
X59.33Y-61.2
X59.36Y-115.9
X59.8Y-49.15
X60.Y-48.
X60.21Y-67.93
X60.35Y-86.22
X60.5Y-57.
X60.95Y-55.4
X61.Y-59.
X61.3Y-53.55
X61.5Y-48.5
X61.59Y-77.28
X61.81Y-42.65
X62.33Y-52.51
X62.44Y-78.39
X62.45Y-54.7
X62.47Y-97.01
X62.5Y-32.5
X62.5Y-50.
X62.5Y-82.
X63.16Y-76.57
X63.21Y-87.62
X63.66Y-48.4
X63.66Y-55.3
X63.81Y-63.
X63.93Y-64.96
X64.Y-84.
X64.24Y-118.87
X64.76Y-57.77
X64.88Y-95.95
X65.Y-35.
X65.Y-37.5
X65.Y-40.
X65.Y-45.
X65.5Y-84.
X65.69Y-88.54
X65.83Y-90.99
X66.Y-75.
X66.Y-79.5
X66.5Y-63.5
X66.5Y-73.
X66.94Y-102.26
X67.Y-71.
X67.5Y-32.5
X67.5Y-84.
X67.67Y-119.1
X67.78Y-112.74
X67.84Y-105.81
X67.85Y-93.25
X67.91Y-61.55
X67.95Y-84.91
X67.98Y-96.45
X68.Y-60.
X68.Y-79.5
X68.5Y-71.
X68.9Y-104.24
X69.Y-65.5
X69.Y-81.
X69.Y-82.5
X69.1Y-101.84
X69.19Y-99.3
X69.66Y-55.49
X69.69Y-48.25
X69.7Y-52.06
X70.5Y-60.
X70.5Y-71.
X71.Y-66.
X71.25Y-119.19
X71.5Y-74.
X72.Y-70.5
X72.45Y-57.1
X72.5Y-32.5
X72.5Y-46.5
X72.5Y-50.3
X72.5Y-53.8
X73.Y-60.
X73.08Y-48.27
X73.15Y-55.49
X73.17Y-51.98
X73.5Y-70.5
X74.5Y-61.5
X74.77Y-119.19
X75.Y-32.5
X75.Y-70.5
X75.7Y-67.63
X76.5Y-55.5
X76.56Y-97.45
X76.86Y-48.27
X77.Y-52.
X77.5Y-59.
X77.6Y-111.5
X77.77Y-95.36
X77.9Y-98.05
X77.98Y-88.88
X78.49Y-68.05
X79.Y-60.5
X79.01Y-119.19
X79.29Y-58.38
X79.32Y-55.08
X79.39Y-51.57
X79.4Y-48.22
X79.56Y-102.04
X79.8Y-96.34
X79.84Y-99.57
X80.05Y-88.63
X80.16Y-84.7
X81.Y-61.
X81.Y-63.5
X81.Y-66.
X81.Y-68.5
X81.Y-71.
X81.Y-73.
X81.54Y-83.17
X82.63Y-72.3
X82.65Y-70.05
X82.7Y-48.35
X82.75Y-55.75
X82.79Y-99.61
X82.8Y-45.9
X82.87Y-102.43
X82.98Y-66.53
X83.3Y-50.3
X83.32Y-119.3
X83.41Y-83.25
X83.74Y-59.89
X83.95Y-53.8
X84.1Y-88.96
X84.18Y-98.15
X84.3Y-51.79
X84.46Y-68.2
X84.52Y-100.36
X84.6Y-48.95
X84.67Y-50.57
X84.85Y-53.75
X84.93Y-57.
X84.95Y-58.43
X85.24Y-103.35
X85.61Y-101.08
X85.67Y-70.88
X85.69Y-72.14
X85.71Y-89.18
X85.8Y-48.4
X85.8Y-60.6
X85.85Y-51.95
X85.89Y-83.25
X86.93Y-94.14
X86.97Y-91.39
X87.25Y-46.85
X87.37Y-68.29
X87.62Y-89.44
X88.07Y-98.43
X88.09Y-103.33
X88.11Y-100.79
X88.2Y-40.8
X88.65Y-57.35
X88.65Y-60.55
X88.72Y-111.31
X88.93Y-93.3
X89.Y-46.45
X89.06Y-68.13
X89.43Y-83.27
X89.43Y-94.99
X89.5Y-89.15
X89.74Y-119.3
X90.41Y-75.63
X90.53Y-102.6
X90.57Y-106.82
X90.63Y-104.77
X90.64Y-77.06
X90.71Y-97.23
X90.85Y-100.1
X91.Y-40.8
X91.Y-46.45
X91.05Y-63.45
X91.15Y-55.6
X91.26Y-88.25
X91.56Y-66.39
X92.3Y-35.1
X92.3Y-48.7
X92.57Y-83.62
X92.58Y-90.22
X92.8Y-85.62
X92.82Y-76.39
X93.25Y-70.14
X93.8Y-65.31
X93.97Y-35.84
X94.Y-49.
X94.Y-78.92
X94.14Y-81.69
X94.58Y-53.19
X94.98Y-87.36
X95.07Y-90.21
X95.33Y-119.47
X95.5Y-52.33
X95.5Y-70.14
X95.52Y-85.6
X96.29Y-76.46
X96.44Y-35.8
X96.62Y-80.13
X96.85Y-63.25
X96.85Y-106.13
X96.98Y-55.62
X97.Y-50.
X97.15Y-43.65
X97.17Y-66.39
X97.72Y-87.33
X97.79Y-52.44
X97.92Y-57.16
X97.96Y-90.19
X98.05Y-62.24
X98.21Y-85.63
X98.25Y-95.36
X98.68Y-42.44
X99.34Y-75.85
X99.44Y-100.7
X99.84Y-70.36
X99.95Y-93.33
X99.96Y-87.29
X100.19Y-90.14
X100.28Y-104.83
X100.28Y-107.04
X100.31Y-109.56
X100.33Y-53.39
X100.42Y-102.33
X100.58Y-85.63
X100.64Y-48.92
X100.72Y-42.23
X100.87Y-74.59
X100.87Y-95.3
X101.1Y-72.3
X101.51Y-50.68
X101.68Y-59.49
X101.8Y-99.87
X102.48Y-53.53
X102.48Y-119.58
X103.31Y-74.78
X103.33Y-85.
X103.57Y-49.26
X104.01Y-40.33
X104.02Y-101.79
X104.1Y-105.17
X104.38Y-44.87
X105.28Y-54.15
X106.15Y-85.02
X106.42Y-72.66
X106.48Y-75.02
X106.66Y-42.16
X106.7Y-46.16
X107.01Y-119.64
X107.26Y-37.86
X107.86Y-68.48
X107.93Y-53.67
X108.3Y-108.95
X108.39Y-73.46
X108.74Y-46.13
X109.Y-37.94
X109.04Y-42.16
X109.22Y-85.08
X109.7Y-100.64
X110.24Y-107.01
X110.36Y-68.5
X110.41Y-36.45
X110.72Y-105.07
X110.73Y-101.7
X111.45Y-48.03
X111.54Y-98.79
X111.54Y-119.69
X111.72Y-38.22
X111.74Y-53.68
X111.84Y-42.19
X112.35Y-72.275
X112.68Y-46.25
X112.72Y-85.18
X113.Y-68.7
X113.1Y-89.23
X113.28Y-105.1
X113.69Y-38.28
X114.38Y-42.18
X114.48Y-106.78
X114.51Y-87.6
X114.89Y-67.08
X115.23Y-46.21
X115.4Y-89.15
X115.55Y-72.625
X115.9Y-119.81
X116.44Y-108.93
X116.45Y-99.24
X116.48Y-41.39
X116.49Y-63.05
X116.54Y-65.04
X116.57Y-59.98
X116.76Y-84.35
X117.12Y-116.62
X117.19Y-57.8
X117.21Y-88.19
X117.53Y-67.21
X117.57Y-35.65
X117.62Y-43.21
X117.64Y-45.26
X117.71Y-38.53
X117.85Y-33.05
X118.17Y-106.21
X118.19Y-104.03
X118.618Y-80.518
X118.67Y-95.32
X119.634Y-78.232
X119.83Y-83.71
X119.9Y-69.15
X120.15Y-67.35
X120.25Y-116.57
X120.39Y-38.22
X120.84Y-35.54
X121.08Y-89.17
X121.29Y-41.67
X121.4Y-55.85
X121.41Y-94.63
X121.55Y-103.78
X121.6Y-73.75
X121.71Y-43.82
X121.73Y-76.05
X122.Y-50.41
X122.1Y-91.79
X122.32Y-119.42
X122.72Y-68.77
X122.83Y-62.57
X122.85Y-33.19
X123.09Y-47.2
X123.17Y-49.53
X123.52Y-83.73
X123.79Y-65.99
X124.13Y-64.17
X124.18Y-74.98
X124.48Y-48.18
X125.06Y-71.33
X125.15Y-66.39
X125.17Y-69.01
X125.64Y-77.01
X125.67Y-116.06
X125.67Y-119.47
X125.7Y-54.4
X125.81Y-74.91
X125.88Y-81.04
X126.82Y-72.62
X126.96Y-33.19
X126.96Y-48.2
X126.96Y-64.94
X127.08Y-67.46
X127.18Y-82.86
X127.45Y-44.18
X128.13Y-38.47
X128.26Y-49.51
X128.42Y-64.05
X129.Y-72.54
X129.08Y-35.76
X129.25Y-115.73
X129.48Y-66.2
X129.75Y-119.08
X129.92Y-94.72
X130.21Y-63.24
X130.54Y-60.17
X130.73Y-71.02
X130.92Y-64.58
X131.06Y-46.72
X131.691Y-44.52
X133.16Y-81.08
X133.18Y-77.76
X133.2Y-94.68
X137.24Y-94.68
X138.69Y-91.59
X139.06Y-72.7
X139.06Y-87.93
X139.07Y-81.9
X139.07Y-84.96
X139.09Y-75.75
X139.09Y-78.93
X139.1Y-62.71
X139.1Y-66.45
X139.1Y-69.53
X139.2Y-60.88
X139.48Y-55.24
T2
X46.6Y-34.
X46.6Y-119.
X47.303Y-32.303
X47.303Y-35.697
X47.303Y-117.303
X47.303Y-120.697
X49.Y-31.6
X49.Y-36.4
X49.Y-116.6
X49.Y-121.4
X50.697Y-32.303
X50.697Y-35.697
X50.697Y-117.303
X50.697Y-120.697
X51.4Y-34.
X51.4Y-119.
X138.6Y-34.
X138.6Y-119.
X139.303Y-32.303
X139.303Y-35.697
X139.303Y-117.303
X139.303Y-120.697
X141.Y-31.6
X141.Y-36.4
X141.Y-116.6
X141.Y-121.4
X142.697Y-32.303
X142.697Y-35.697
X142.697Y-117.303
X142.697Y-120.697
X143.4Y-34.
X143.4Y-119.
T3
X59.59Y-103.44
X59.59Y-104.71
X59.59Y-105.98
T4
X53.48Y-63.95
X53.48Y-65.95
X55.98Y-41.21
X56.44Y-97.63
X56.44Y-99.63
X58.48Y-41.21
X59.82Y-110.4
X59.82Y-112.4
X72.57Y-38.08
X74.57Y-38.08
X78.99Y-37.1
X80.99Y-37.1
X83.19Y-40.94
X83.19Y-42.94
X86.36Y-63.92
X86.36Y-65.92
X97.21Y-82.28
X99.21Y-82.28
X102.47Y-66.81
X102.47Y-68.81
X105.426Y-51.816
X107.426Y-51.816
X110.13Y-77.46
X112.13Y-77.46
X118.16Y-47.59
X120.16Y-47.59
X124.09Y-107.29
X124.09Y-112.29
X128.38Y-87.5
X130.35Y-80.11
X130.35Y-82.11
X130.88Y-87.5
X131.45Y-101.16
X133.95Y-101.16
T6
X51.8Y-46.63
X52.67Y-59.76
X60.92Y-89.38
X60.92Y-99.54
X61.96Y-46.63
X62.83Y-59.76
X64.71Y-102.37
X64.71Y-112.53
X65.81Y-59.74
X68.17Y-43.03
X75.97Y-59.74
X78.33Y-43.03
X103.632Y-71.882
X103.632Y-82.042
X104.3Y-37.22
X104.3Y-47.38
X106.68Y-82.042
X107.35Y-60.2
X107.35Y-70.36
X110.7Y-60.2
X110.7Y-70.36
X112.91Y-36.46
X116.84Y-82.042
X123.07Y-36.46
T7
X48.Y-75.84
X48.Y-78.38
X48.Y-80.92
X48.Y-87.32
X48.Y-89.86
X48.Y-92.4
X48.Y-94.94
X48.Y-101.34
X48.Y-103.88
X48.Y-108.92
X48.Y-111.46
X48.Y-114.
X141.2Y-100.94
X141.2Y-103.48
X141.24Y-94.65
X141.24Y-97.19
T9
X49.Y-34.
X49.Y-119.
X141.Y-34.
X141.Y-119.
T5
X136.Y-40.06G85X136.7Y-40.06
G05
X136.Y-42.56G85X136.7Y-42.56
G05
X136.Y-47.56G85X136.7Y-47.56
G05
X136.Y-50.06G85X136.7Y-50.06
G05
X136.Y-53.01G85X136.7Y-53.01
G05
X136.Y-55.51G85X136.7Y-55.51
G05
X136.Y-60.51G85X136.7Y-60.51
G05
X136.Y-63.01G85X136.7Y-63.01
G05
X136.Y-66.G85X136.7Y-66.
G05
X136.Y-68.5G85X136.7Y-68.5
G05
X136.Y-73.5G85X136.7Y-73.5
G05
X136.Y-76.G85X136.7Y-76.
G05
X136.Y-79.12G85X136.7Y-79.12
G05
X136.Y-81.62G85X136.7Y-81.62
G05
X136.Y-86.62G85X136.7Y-86.62
G05
X136.Y-89.12G85X136.7Y-89.12
G05
X141.35Y-45.41G85X141.35Y-44.71
G05
X141.35Y-58.36G85X141.35Y-57.66
G05
X141.35Y-71.35G85X141.35Y-70.65
G05
X141.35Y-84.47G85X141.35Y-83.77
G05
T6
X131.3Y-111.499G85X131.3Y-109.501
G05
X135.299Y-115.199G85X133.3Y-115.199
G05
X137.299Y-111.499G85X137.299Y-109.501
G05
T8
X136.35Y-45.06G85X136.35Y-45.06
G05
X136.35Y-58.01G85X136.35Y-58.01
G05
X136.35Y-71.G85X136.35Y-71.
G05
X136.35Y-84.12G85X136.35Y-84.12
G05
X141.35Y-40.06G85X141.35Y-40.06
G05
X141.35Y-50.06G85X141.35Y-50.06
G05
X141.35Y-53.01G85X141.35Y-53.01
G05
X141.35Y-63.01G85X141.35Y-63.01
G05
X141.35Y-66.G85X141.35Y-66.
G05
X141.35Y-76.G85X141.35Y-76.
G05
X141.35Y-79.12G85X141.35Y-79.12
G05
X141.35Y-89.12G85X141.35Y-89.12
G05
X143.85Y-40.06G85X143.85Y-40.06
G05
X143.85Y-50.06G85X143.85Y-50.06
G05
X143.85Y-53.01G85X143.85Y-53.01
G05
X143.85Y-63.01G85X143.85Y-63.01
G05
X143.85Y-66.G85X143.85Y-66.
G05
X143.85Y-76.G85X143.85Y-76.
G05
X143.85Y-79.12G85X143.85Y-79.12
G05
X143.85Y-89.12G85X143.85Y-89.12
G05
T0
M30
