G04 #@! TF.FileFunction,Soldermask,Top*
%FSLAX46Y46*%
G04 Gerber Fmt 4.6, Leading zero omitted, Abs format (unit mm)*
G04 Created by KiCad (PCBNEW 4.0.3+e1-6302~38~ubuntu14.04.1-stable) date Thu Sep 29 11:28:22 2016*
%MOMM*%
%LPD*%
G01*
G04 APERTURE LIST*
%ADD10C,0.100000*%
%ADD11R,1.600000X1.600000*%
%ADD12R,1.400000X1.700000*%
%ADD13R,1.500000X0.600000*%
%ADD14R,0.750000X0.800000*%
%ADD15C,1.998980*%
%ADD16R,1.501140X2.148840*%
%ADD17R,0.800000X0.750000*%
%ADD18R,1.300000X1.300000*%
%ADD19C,1.300000*%
%ADD20R,1.700000X1.400000*%
%ADD21R,0.900000X0.500000*%
%ADD22R,0.500000X0.900000*%
%ADD23R,1.500000X0.450000*%
%ADD24R,2.032000X3.657600*%
%ADD25R,2.032000X1.016000*%
%ADD26R,1.060000X0.650000*%
%ADD27R,2.150000X1.700000*%
%ADD28R,1.300000X1.545000*%
%ADD29R,2.148840X1.501140*%
%ADD30O,1.600000X2.500000*%
%ADD31O,1.200000X1.200000*%
%ADD32O,2.500000X1.600000*%
%ADD33R,0.800100X0.800100*%
%ADD34R,0.900000X1.400000*%
%ADD35R,0.240000X0.900000*%
%ADD36R,0.900000X0.240000*%
%ADD37R,0.400000X0.320000*%
%ADD38R,0.400000X0.220000*%
%ADD39R,0.220000X0.400000*%
%ADD40R,0.600000X1.500000*%
%ADD41R,3.500120X3.500120*%
%ADD42R,1.143000X0.508000*%
%ADD43R,3.048000X1.651000*%
%ADD44R,6.096000X6.096000*%
%ADD45R,2.032000X1.727200*%
%ADD46O,2.032000X1.727200*%
%ADD47R,1.300480X1.699260*%
%ADD48R,1.699260X1.300480*%
%ADD49O,1.501140X0.899160*%
%ADD50R,2.032000X2.032000*%
%ADD51O,2.032000X2.032000*%
%ADD52C,6.400000*%
%ADD53C,0.600000*%
G04 APERTURE END LIST*
D10*
D11*
X131030000Y-91590000D03*
X128730000Y-91590000D03*
D12*
X92800000Y-68100000D03*
X95200000Y-68100000D03*
D13*
X99600000Y-63260000D03*
X99600000Y-61990000D03*
X99600000Y-60720000D03*
X99600000Y-59450000D03*
X99600000Y-58180000D03*
X99600000Y-56910000D03*
X99600000Y-55640000D03*
X94200000Y-55640000D03*
X94200000Y-56910000D03*
X94200000Y-58180000D03*
X94200000Y-59450000D03*
X94200000Y-60720000D03*
X94200000Y-61990000D03*
X94200000Y-63260000D03*
D14*
X103500000Y-63500000D03*
X103500000Y-62000000D03*
D15*
X110700000Y-60200000D03*
X110700000Y-70360000D03*
D16*
X132650000Y-64973860D03*
X132650000Y-67976140D03*
D14*
X138910000Y-48800000D03*
X138910000Y-47300000D03*
D17*
X124050000Y-46040000D03*
X125550000Y-46040000D03*
D11*
X72920000Y-63420000D03*
X72920000Y-65720000D03*
X129170000Y-45310000D03*
X129170000Y-47610000D03*
X121320000Y-65630000D03*
X119020000Y-65630000D03*
X133000000Y-56150000D03*
X133000000Y-53850000D03*
D14*
X103400000Y-55550000D03*
X103400000Y-57050000D03*
D11*
X57330000Y-63510000D03*
X57330000Y-61210000D03*
X47830000Y-61890000D03*
X47830000Y-59590000D03*
X134550000Y-107300000D03*
X132250000Y-107300000D03*
X133620000Y-97760000D03*
X131320000Y-97760000D03*
D18*
X131450000Y-101160000D03*
D19*
X133950000Y-101160000D03*
D11*
X74260000Y-42650000D03*
X71960000Y-42650000D03*
X97750000Y-77850000D03*
X100050000Y-77850000D03*
X56290000Y-38590000D03*
X58590000Y-38590000D03*
D18*
X58480000Y-41210000D03*
D19*
X55980000Y-41210000D03*
D15*
X106680000Y-82042000D03*
X116840000Y-82042000D03*
D12*
X99460000Y-67780000D03*
X97060000Y-67780000D03*
D20*
X133000000Y-39710000D03*
X133000000Y-37310000D03*
D21*
X91000000Y-35250000D03*
X91000000Y-36750000D03*
D22*
X97250000Y-34000000D03*
X98750000Y-34000000D03*
X101750000Y-37500000D03*
X100250000Y-37500000D03*
D21*
X89000000Y-35250000D03*
X89000000Y-36750000D03*
D20*
X75870000Y-65760000D03*
X75870000Y-63360000D03*
D12*
X68600000Y-46500000D03*
X71000000Y-46500000D03*
D20*
X127390000Y-51130000D03*
X127390000Y-53530000D03*
D22*
X95250000Y-51000000D03*
X93750000Y-51000000D03*
D21*
X91000000Y-48750000D03*
X91000000Y-47250000D03*
X114360000Y-59920000D03*
X114360000Y-58420000D03*
D22*
X97250000Y-51000000D03*
X98750000Y-51000000D03*
X97250000Y-47500000D03*
X98750000Y-47500000D03*
X101750000Y-47500000D03*
X100250000Y-47500000D03*
X126680000Y-61850000D03*
X128180000Y-61850000D03*
D21*
X89000000Y-48750000D03*
X89000000Y-47250000D03*
D12*
X68600000Y-57150000D03*
X71000000Y-57150000D03*
D20*
X129000000Y-76200000D03*
X129000000Y-73800000D03*
X50110000Y-61940000D03*
X50110000Y-59540000D03*
X50110000Y-55230000D03*
X50110000Y-57630000D03*
X47790000Y-57550000D03*
X47790000Y-55150000D03*
D23*
X119900000Y-39950000D03*
X119900000Y-40600000D03*
X119900000Y-41250000D03*
X119900000Y-41900000D03*
X119900000Y-42550000D03*
X119900000Y-43200000D03*
X119900000Y-43850000D03*
X119900000Y-44500000D03*
X125800000Y-44500000D03*
X125800000Y-43850000D03*
X125800000Y-43200000D03*
X125800000Y-42550000D03*
X125800000Y-41900000D03*
X125800000Y-41250000D03*
X125800000Y-40600000D03*
X125800000Y-39950000D03*
X114200000Y-70625000D03*
X114200000Y-71275000D03*
X114200000Y-71925000D03*
X114200000Y-72575000D03*
X114200000Y-73225000D03*
X114200000Y-73875000D03*
X114200000Y-74525000D03*
X114200000Y-75175000D03*
X120100000Y-75175000D03*
X120100000Y-74525000D03*
X120100000Y-73875000D03*
X120100000Y-73225000D03*
X120100000Y-72575000D03*
X120100000Y-71925000D03*
X120100000Y-71275000D03*
X120100000Y-70625000D03*
D24*
X119408000Y-91590000D03*
D25*
X126012000Y-91590000D03*
X126012000Y-89304000D03*
X126012000Y-93876000D03*
D24*
X67982000Y-38560000D03*
D25*
X61378000Y-38560000D03*
X61378000Y-40846000D03*
X61378000Y-36274000D03*
D26*
X66950000Y-49350000D03*
X66950000Y-48400000D03*
X66950000Y-47450000D03*
X64750000Y-47450000D03*
X64750000Y-49350000D03*
X64750000Y-48400000D03*
D27*
X62195000Y-69110000D03*
X58045000Y-69110000D03*
X62195000Y-66570000D03*
X62195000Y-71650000D03*
X58045000Y-66570000D03*
X58045000Y-71650000D03*
D28*
X60120000Y-66257500D03*
X60120000Y-71962500D03*
D29*
X74298860Y-46500000D03*
X77301140Y-46500000D03*
D30*
X141350000Y-45060000D03*
D31*
X136350000Y-45060000D03*
D32*
X136350000Y-40060000D03*
X136350000Y-42560000D03*
X136350000Y-47560000D03*
X136350000Y-50060000D03*
D31*
X141350000Y-40060000D03*
X141350000Y-50060000D03*
X143850000Y-40060000D03*
X143850000Y-50060000D03*
D30*
X141350000Y-58010000D03*
D31*
X136350000Y-58010000D03*
D32*
X136350000Y-53010000D03*
X136350000Y-55510000D03*
X136350000Y-60510000D03*
X136350000Y-63010000D03*
D31*
X141350000Y-53010000D03*
X141350000Y-63010000D03*
X143850000Y-53010000D03*
X143850000Y-63010000D03*
D30*
X141350000Y-71000000D03*
D31*
X136350000Y-71000000D03*
D32*
X136350000Y-66000000D03*
X136350000Y-68500000D03*
X136350000Y-73500000D03*
X136350000Y-76000000D03*
D31*
X141350000Y-66000000D03*
X141350000Y-76000000D03*
X143850000Y-66000000D03*
X143850000Y-76000000D03*
D30*
X141350000Y-84120000D03*
D31*
X136350000Y-84120000D03*
D32*
X136350000Y-79120000D03*
X136350000Y-81620000D03*
X136350000Y-86620000D03*
X136350000Y-89120000D03*
D31*
X141350000Y-79120000D03*
X141350000Y-89120000D03*
X143850000Y-79120000D03*
X143850000Y-89120000D03*
D11*
X125850000Y-35970000D03*
X125850000Y-38270000D03*
X109330000Y-47860000D03*
X107030000Y-47860000D03*
D14*
X138950000Y-39400000D03*
X138950000Y-40900000D03*
D11*
X85530000Y-38170000D03*
X85530000Y-35870000D03*
X88900000Y-66090000D03*
X88900000Y-63790000D03*
X87400000Y-43000000D03*
X87400000Y-45300000D03*
X120230000Y-52840000D03*
X120230000Y-50540000D03*
X123970000Y-51190000D03*
X123970000Y-53490000D03*
D14*
X67700000Y-75200000D03*
X67700000Y-73700000D03*
X68620000Y-69340000D03*
X68620000Y-67840000D03*
D29*
X74298860Y-50300000D03*
X77301140Y-50300000D03*
D11*
X73850000Y-80080000D03*
X71550000Y-80080000D03*
X71620000Y-77720000D03*
X73920000Y-77720000D03*
D17*
X90850000Y-53500000D03*
X89350000Y-53500000D03*
X73090000Y-74330000D03*
X74590000Y-74330000D03*
D11*
X75220000Y-72450000D03*
X72920000Y-72450000D03*
D17*
X73370000Y-68980000D03*
X74870000Y-68980000D03*
D11*
X117060000Y-50360000D03*
X117060000Y-52660000D03*
X133220000Y-59950000D03*
X133220000Y-62250000D03*
D29*
X74198860Y-53800000D03*
X77201140Y-53800000D03*
D14*
X122830000Y-59480000D03*
X122830000Y-60980000D03*
D11*
X53410000Y-48790000D03*
X55710000Y-48790000D03*
X58670000Y-58000000D03*
X56370000Y-58000000D03*
D29*
X74198860Y-57100000D03*
X77201140Y-57100000D03*
D11*
X124370000Y-79030000D03*
X126670000Y-79030000D03*
D17*
X90550000Y-59600000D03*
X89050000Y-59600000D03*
D16*
X106700000Y-66601140D03*
X106700000Y-63598860D03*
D11*
X94225000Y-74150000D03*
X94225000Y-71850000D03*
D16*
X132675000Y-71498860D03*
X132675000Y-74501140D03*
D17*
X118450000Y-76350000D03*
X119950000Y-76350000D03*
D16*
X111350000Y-66501140D03*
X111350000Y-63498860D03*
D29*
X123501140Y-81650000D03*
X120498860Y-81650000D03*
X123551140Y-85650000D03*
X120548860Y-85650000D03*
D11*
X55130000Y-69410000D03*
X55130000Y-71710000D03*
D15*
X68170000Y-43030000D03*
X78330000Y-43030000D03*
D14*
X69650000Y-75210000D03*
X69650000Y-73710000D03*
X70490000Y-69340000D03*
X70490000Y-67840000D03*
D17*
X76100000Y-81080000D03*
X77600000Y-81080000D03*
D15*
X107350000Y-60200000D03*
X107350000Y-70360000D03*
D33*
X121150760Y-61250000D03*
X121150760Y-59350000D03*
X119151780Y-60300000D03*
D22*
X95250000Y-34000000D03*
X93750000Y-34000000D03*
D12*
X109200000Y-40000000D03*
X106800000Y-40000000D03*
D22*
X93750000Y-37500000D03*
X95250000Y-37500000D03*
D20*
X132990000Y-48240000D03*
X132990000Y-45840000D03*
D22*
X97250000Y-37500000D03*
X98750000Y-37500000D03*
D12*
X109200000Y-44500000D03*
X106800000Y-44500000D03*
D20*
X82720000Y-64290000D03*
X82720000Y-61890000D03*
D12*
X67900000Y-63280000D03*
X70300000Y-63280000D03*
D22*
X124600000Y-55800000D03*
X123100000Y-55800000D03*
D12*
X129280000Y-57490000D03*
X126880000Y-57490000D03*
D20*
X118660000Y-55040000D03*
X118660000Y-57440000D03*
D12*
X121330000Y-63420000D03*
X118930000Y-63420000D03*
X68600000Y-50400000D03*
X71000000Y-50400000D03*
D22*
X93750000Y-47500000D03*
X95250000Y-47500000D03*
D21*
X114380000Y-57100000D03*
X114380000Y-55600000D03*
D12*
X68600000Y-53800000D03*
X71000000Y-53800000D03*
D21*
X109050000Y-64050000D03*
X109050000Y-65550000D03*
D22*
X97700000Y-65050000D03*
X96200000Y-65050000D03*
D20*
X129000000Y-71200000D03*
X129000000Y-68800000D03*
D21*
X92150000Y-61950000D03*
X92150000Y-63450000D03*
X101700000Y-62000000D03*
X101700000Y-63500000D03*
X113650000Y-64050000D03*
X113650000Y-65550000D03*
X101600000Y-55550000D03*
X101600000Y-57050000D03*
X92100000Y-57050000D03*
X92100000Y-55550000D03*
D22*
X97550000Y-53900000D03*
X96050000Y-53900000D03*
D20*
X64990000Y-69260000D03*
X64990000Y-71660000D03*
D12*
X60240000Y-74460000D03*
X57840000Y-74460000D03*
X61800000Y-63310000D03*
X59400000Y-63310000D03*
X56180000Y-36310000D03*
X58580000Y-36310000D03*
D23*
X81350000Y-47725000D03*
X81350000Y-48375000D03*
X81350000Y-49025000D03*
X81350000Y-49675000D03*
X81350000Y-50325000D03*
X81350000Y-50975000D03*
X81350000Y-51625000D03*
X81350000Y-52275000D03*
X87250000Y-52275000D03*
X87250000Y-51625000D03*
X87250000Y-50975000D03*
X87250000Y-50325000D03*
X87250000Y-49675000D03*
X87250000Y-49025000D03*
X87250000Y-48375000D03*
X87250000Y-47725000D03*
D26*
X66950000Y-56250000D03*
X66950000Y-55300000D03*
X66950000Y-54350000D03*
X64750000Y-54350000D03*
X64750000Y-56250000D03*
X64750000Y-55300000D03*
D23*
X81350000Y-55125000D03*
X81350000Y-55775000D03*
X81350000Y-56425000D03*
X81350000Y-57075000D03*
X81350000Y-57725000D03*
X81350000Y-58375000D03*
X81350000Y-59025000D03*
X81350000Y-59675000D03*
X87250000Y-59675000D03*
X87250000Y-59025000D03*
X87250000Y-58375000D03*
X87250000Y-57725000D03*
X87250000Y-57075000D03*
X87250000Y-56425000D03*
X87250000Y-55775000D03*
X87250000Y-55125000D03*
D34*
X60050000Y-51860000D03*
D35*
X59800000Y-53410000D03*
X59800000Y-50310000D03*
X60300000Y-53410000D03*
X60300000Y-50310000D03*
D36*
X58750000Y-52860000D03*
X58750000Y-52360000D03*
X58750000Y-51860000D03*
X58750000Y-51360000D03*
X61350000Y-52860000D03*
X61350000Y-52360000D03*
X61350000Y-51860000D03*
X61350000Y-51360000D03*
X58750000Y-50860000D03*
X61350000Y-50860000D03*
D37*
X55350000Y-53730000D03*
D38*
X55350000Y-53170000D03*
X55350000Y-52670000D03*
D39*
X54750000Y-52570000D03*
D38*
X54150000Y-52670000D03*
X54150000Y-53170000D03*
X54150000Y-53670000D03*
D39*
X54750000Y-53770000D03*
D40*
X93690000Y-45200000D03*
X94960000Y-45200000D03*
X96230000Y-45200000D03*
X97500000Y-45200000D03*
X98770000Y-45200000D03*
X100040000Y-45200000D03*
X101310000Y-45200000D03*
X101310000Y-39800000D03*
X100040000Y-39800000D03*
X98770000Y-39800000D03*
X97500000Y-39800000D03*
X96230000Y-39800000D03*
X94960000Y-39800000D03*
X93690000Y-39800000D03*
D41*
X131299860Y-110500000D03*
X137299340Y-110500000D03*
X134299600Y-115199000D03*
D15*
X112910000Y-36460000D03*
X123070000Y-36460000D03*
D12*
X126230000Y-59880000D03*
X128630000Y-59880000D03*
D29*
X115001140Y-40000000D03*
X111998860Y-40000000D03*
X115001140Y-44500000D03*
X111998860Y-44500000D03*
D11*
X89570000Y-73040000D03*
X89570000Y-70740000D03*
D42*
X77290000Y-69595000D03*
X77290000Y-70865000D03*
X77290000Y-72135000D03*
X77290000Y-73405000D03*
X77290000Y-74675000D03*
X77290000Y-75945000D03*
X77290000Y-77215000D03*
X77290000Y-78485000D03*
X87450000Y-78485000D03*
X87450000Y-77215000D03*
X87450000Y-75945000D03*
X87450000Y-74675000D03*
X87450000Y-73405000D03*
X87450000Y-72135000D03*
X87450000Y-70865000D03*
X87450000Y-69595000D03*
D15*
X104300000Y-37220000D03*
X104300000Y-47380000D03*
X51800000Y-46630000D03*
X61960000Y-46630000D03*
X62830000Y-59760000D03*
X52670000Y-59760000D03*
X75970000Y-59740000D03*
X65810000Y-59740000D03*
X103632000Y-82042000D03*
X103632000Y-71882000D03*
D43*
X127180000Y-102426000D03*
D44*
X120830000Y-100140000D03*
D43*
X127180000Y-97854000D03*
D18*
X128380000Y-87500000D03*
D19*
X130880000Y-87500000D03*
D45*
X48000000Y-80920000D03*
D46*
X48000000Y-78380000D03*
X48000000Y-75840000D03*
D11*
X64760000Y-105020000D03*
X64760000Y-107320000D03*
X60970000Y-94670000D03*
X60970000Y-92370000D03*
X75690000Y-112680000D03*
X75690000Y-114980000D03*
X71050000Y-98200000D03*
X71050000Y-100500000D03*
X54040000Y-98090000D03*
X54040000Y-100390000D03*
D14*
X74570000Y-99550000D03*
X74570000Y-98050000D03*
D11*
X68090000Y-86810000D03*
X70390000Y-86810000D03*
X68090000Y-89060000D03*
X70390000Y-89060000D03*
D17*
X69310000Y-91180000D03*
X67810000Y-91180000D03*
D11*
X73250000Y-104940000D03*
X70950000Y-104940000D03*
X73210000Y-107320000D03*
X70910000Y-107320000D03*
D17*
X71200000Y-109520000D03*
X72700000Y-109520000D03*
X75410000Y-102830000D03*
X76910000Y-102830000D03*
D14*
X72940000Y-92390000D03*
X72940000Y-90890000D03*
X81280000Y-103120000D03*
X81280000Y-101620000D03*
D17*
X82090000Y-94140000D03*
X83590000Y-94140000D03*
X81780000Y-107210000D03*
X83280000Y-107210000D03*
X81770000Y-109230000D03*
X83270000Y-109230000D03*
D11*
X98530000Y-109840000D03*
X98530000Y-112140000D03*
D17*
X86220000Y-96680000D03*
X87720000Y-96680000D03*
X86840000Y-105730000D03*
X88340000Y-105730000D03*
D14*
X94910000Y-100910000D03*
X94910000Y-99410000D03*
D17*
X96960000Y-91480000D03*
X98460000Y-91480000D03*
D14*
X93540000Y-107340000D03*
X93540000Y-108840000D03*
D11*
X97160000Y-99090000D03*
X97160000Y-101390000D03*
X95860000Y-110310000D03*
X95860000Y-108010000D03*
X101780000Y-97220000D03*
X99480000Y-97220000D03*
X105910000Y-101340000D03*
X105910000Y-103640000D03*
X105650000Y-91740000D03*
X105650000Y-94040000D03*
D14*
X103770000Y-95200000D03*
X103770000Y-93700000D03*
D11*
X102050000Y-101630000D03*
X102050000Y-103930000D03*
D14*
X104000000Y-108260000D03*
X104000000Y-106760000D03*
D11*
X109110000Y-94040000D03*
X109110000Y-96340000D03*
X105980000Y-109470000D03*
X105980000Y-107170000D03*
D14*
X111960000Y-103430000D03*
X111960000Y-101930000D03*
D11*
X111760000Y-94100000D03*
X111760000Y-96400000D03*
X110570000Y-113430000D03*
X110570000Y-111130000D03*
X119860000Y-107350000D03*
X119860000Y-105050000D03*
X116450000Y-90880000D03*
X116450000Y-93180000D03*
X55460000Y-112930000D03*
X55460000Y-115230000D03*
D47*
X74469940Y-86600000D03*
X77970060Y-86600000D03*
D48*
X70160000Y-112159940D03*
X70160000Y-115660060D03*
X78820000Y-93900060D03*
X78820000Y-90399940D03*
X79820000Y-112249940D03*
X79820000Y-115750060D03*
X93000000Y-91820060D03*
X93000000Y-88319940D03*
X91170000Y-111519940D03*
X91170000Y-115020060D03*
X101740000Y-91810060D03*
X101740000Y-88309940D03*
X102150000Y-111599940D03*
X102150000Y-115100060D03*
X111170000Y-91270060D03*
X111170000Y-87769940D03*
X112880000Y-112249940D03*
X112880000Y-115750060D03*
D14*
X72980000Y-94800000D03*
X72980000Y-96300000D03*
X70900000Y-93620000D03*
X70900000Y-95120000D03*
D17*
X72860000Y-102740000D03*
X71360000Y-102740000D03*
D14*
X81310000Y-98440000D03*
X81310000Y-99940000D03*
D11*
X81550000Y-96340000D03*
X83850000Y-96340000D03*
X81370000Y-104970000D03*
X83670000Y-104970000D03*
X92590000Y-96980000D03*
X92590000Y-94680000D03*
X95610000Y-93540000D03*
X97910000Y-93540000D03*
X93870000Y-103750000D03*
X96170000Y-103750000D03*
X105900000Y-98900000D03*
X105900000Y-96600000D03*
D17*
X109700000Y-98520000D03*
X108200000Y-98520000D03*
X109700000Y-103100000D03*
X108200000Y-103100000D03*
D14*
X113690000Y-99610000D03*
X113690000Y-101110000D03*
D17*
X115160000Y-96500000D03*
X113660000Y-96500000D03*
X115380000Y-102920000D03*
X113880000Y-102920000D03*
D45*
X48000000Y-114000000D03*
D46*
X48000000Y-111460000D03*
X48000000Y-108920000D03*
D12*
X63820000Y-93210000D03*
X66220000Y-93210000D03*
X64030000Y-115210000D03*
X66430000Y-115210000D03*
D20*
X75750000Y-110560000D03*
X75750000Y-108160000D03*
X86840000Y-110190000D03*
X86840000Y-107790000D03*
X98370000Y-107000000D03*
X98370000Y-104600000D03*
X108300000Y-107400000D03*
X108300000Y-105000000D03*
X116450000Y-107400000D03*
X116450000Y-105000000D03*
D49*
X59590000Y-104710000D03*
X59590000Y-105980000D03*
X59590000Y-103440000D03*
D17*
X82090000Y-92210000D03*
X83590000Y-92210000D03*
D11*
X71550000Y-83820000D03*
X73850000Y-83820000D03*
D40*
X90435000Y-81120000D03*
X89165000Y-81120000D03*
X87895000Y-81120000D03*
X86625000Y-81120000D03*
X85355000Y-81120000D03*
X84085000Y-81120000D03*
X82815000Y-81120000D03*
X81545000Y-81120000D03*
X81545000Y-86520000D03*
X82815000Y-86520000D03*
X84085000Y-86520000D03*
X85355000Y-86520000D03*
X86625000Y-86520000D03*
X87895000Y-86520000D03*
X89165000Y-86520000D03*
X90435000Y-86520000D03*
D15*
X60920000Y-89380000D03*
X60920000Y-99540000D03*
X64710000Y-102370000D03*
X64710000Y-112530000D03*
D11*
X86640000Y-112580000D03*
X86640000Y-114880000D03*
X108300000Y-110520000D03*
X108320000Y-112820000D03*
X116430000Y-110520000D03*
X116430000Y-112820000D03*
X66170000Y-98860000D03*
X63870000Y-98860000D03*
D20*
X57180000Y-106010000D03*
X57180000Y-103610000D03*
D11*
X66710000Y-81960000D03*
X64410000Y-81960000D03*
D20*
X60760000Y-83050000D03*
X60760000Y-80650000D03*
D45*
X48000000Y-94940000D03*
D46*
X48000000Y-92400000D03*
X48000000Y-89860000D03*
X48000000Y-87320000D03*
D37*
X61450000Y-79020000D03*
D38*
X61450000Y-78460000D03*
X61450000Y-77960000D03*
D39*
X60850000Y-77860000D03*
D38*
X60250000Y-77960000D03*
X60250000Y-78460000D03*
X60250000Y-78960000D03*
D39*
X60850000Y-79060000D03*
D50*
X141240000Y-97190000D03*
D51*
X141240000Y-94650000D03*
D50*
X48000000Y-103880000D03*
D51*
X48000000Y-101340000D03*
D50*
X141200000Y-103480000D03*
D51*
X141200000Y-100940000D03*
D18*
X124090000Y-107290000D03*
D19*
X124090000Y-112290000D03*
D52*
X49000000Y-119000000D03*
D53*
X51400000Y-119000000D03*
X50697056Y-120697056D03*
X49000000Y-121400000D03*
X47302944Y-120697056D03*
X46600000Y-119000000D03*
X47302944Y-117302944D03*
X49000000Y-116600000D03*
X50697056Y-117302944D03*
D52*
X141000000Y-119000000D03*
D53*
X143400000Y-119000000D03*
X142697056Y-120697056D03*
X141000000Y-121400000D03*
X139302944Y-120697056D03*
X138600000Y-119000000D03*
X139302944Y-117302944D03*
X141000000Y-116600000D03*
X142697056Y-117302944D03*
D52*
X141000000Y-34000000D03*
D53*
X143400000Y-34000000D03*
X142697056Y-35697056D03*
X141000000Y-36400000D03*
X139302944Y-35697056D03*
X138600000Y-34000000D03*
X139302944Y-32302944D03*
X141000000Y-31600000D03*
X142697056Y-32302944D03*
D52*
X49000000Y-34000000D03*
D53*
X51400000Y-34000000D03*
X50697056Y-35697056D03*
X49000000Y-36400000D03*
X47302944Y-35697056D03*
X46600000Y-34000000D03*
X47302944Y-32302944D03*
X49000000Y-31600000D03*
X50697056Y-32302944D03*
D29*
X128688860Y-42390000D03*
X131691140Y-42390000D03*
D16*
X130140000Y-50268860D03*
X130140000Y-53271140D03*
D18*
X130350000Y-80110000D03*
D19*
X130350000Y-82110000D03*
D16*
X130350000Y-79608860D03*
X130350000Y-82611140D03*
D18*
X102470000Y-66810000D03*
D19*
X102470000Y-68810000D03*
D16*
X102470000Y-66308860D03*
X102470000Y-69311140D03*
D18*
X112130000Y-77460000D03*
D19*
X110130000Y-77460000D03*
D29*
X112631140Y-77460000D03*
X109628860Y-77460000D03*
D18*
X56440000Y-99630000D03*
D19*
X56440000Y-97630000D03*
D16*
X56440000Y-100131140D03*
X56440000Y-97128860D03*
D18*
X59820000Y-110400000D03*
D19*
X59820000Y-112400000D03*
D16*
X59820000Y-109898860D03*
X59820000Y-112901140D03*
D18*
X80990000Y-37100000D03*
D19*
X78990000Y-37100000D03*
D29*
X81491140Y-37100000D03*
X78488860Y-37100000D03*
D18*
X83190000Y-42940000D03*
D19*
X83190000Y-40940000D03*
D16*
X83190000Y-43441140D03*
X83190000Y-40438860D03*
X113450000Y-48548860D03*
X113450000Y-51551140D03*
D18*
X53480000Y-63950000D03*
D19*
X53480000Y-65950000D03*
D16*
X53480000Y-63448860D03*
X53480000Y-66451140D03*
D18*
X72570000Y-38080000D03*
D19*
X74570000Y-38080000D03*
D29*
X72068860Y-38080000D03*
X75071140Y-38080000D03*
D18*
X99210000Y-82280000D03*
D19*
X97210000Y-82280000D03*
D29*
X99711140Y-82280000D03*
X96708860Y-82280000D03*
D18*
X105426000Y-51816000D03*
D19*
X107426000Y-51816000D03*
D29*
X104924860Y-51816000D03*
X107927140Y-51816000D03*
D16*
X78930000Y-65771140D03*
X78930000Y-62768860D03*
D18*
X86360000Y-63920000D03*
D19*
X86360000Y-65920000D03*
D16*
X86360000Y-63418860D03*
X86360000Y-66421140D03*
D18*
X120160000Y-47590000D03*
D19*
X118160000Y-47590000D03*
D29*
X120661140Y-47590000D03*
X117658860Y-47590000D03*
D16*
X97150000Y-74531140D03*
X97150000Y-71528860D03*
M02*
